<svg width="41" height="36" viewBox="0 0 41 36" fill="none" xmlns="http://www.w3.org/2000/svg">
<path d="M9.66568 25.3948H9.66705C9.6682 25.3948 9.66934 25.3945 9.67049 25.3945H25.6055C25.9978 25.3945 26.3427 25.1343 26.4505 24.7571L29.9661 12.4524C30.0419 12.1871 29.9888 11.9019 29.8228 11.6818C29.6567 11.4616 29.3969 11.332 29.1211 11.332H7.6387L7.01042 8.50465C6.92093 8.10251 6.56433 7.81641 6.15234 7.81641H0.878906C0.393448 7.81641 0 8.20985 0 8.69531C0 9.18077 0.393448 9.57422 0.878906 9.57422H5.44739C5.55862 10.0752 8.45398 23.1046 8.6206 23.8542C7.68654 24.2602 7.03125 25.1915 7.03125 26.2734C7.03125 27.7273 8.21411 28.9102 9.66797 28.9102H25.6055C26.0909 28.9102 26.4844 28.5167 26.4844 28.0312C26.4844 27.5458 26.0909 27.1523 25.6055 27.1523H9.66797C9.18342 27.1523 8.78906 26.758 8.78906 26.2734C8.78906 25.7896 9.18205 25.3959 9.66568 25.3948ZM27.9559 13.0898L24.9424 23.6367H10.3729L8.02917 13.0898H27.9559Z" fill="#181818"/>
<path d="M8.78903 31.5469C8.78903 33.0007 9.9719 34.1836 11.4258 34.1836C12.8796 34.1836 14.0625 33.0007 14.0625 31.5469C14.0625 30.093 12.8796 28.9101 11.4258 28.9101C9.9719 28.9101 8.78903 30.093 8.78903 31.5469ZM11.4258 30.668C11.9103 30.668 12.3047 31.0623 12.3047 31.5469C12.3047 32.0314 11.9103 32.4258 11.4258 32.4258C10.9412 32.4258 10.5468 32.0314 10.5468 31.5469C10.5468 31.0623 10.9412 30.668 11.4258 30.668Z" fill="#181818"/>
<path d="M21.2109 31.5469C21.2109 33.0007 22.3938 34.1836 23.8476 34.1836C25.3015 34.1836 26.4844 33.0007 26.4844 31.5469C26.4844 30.093 25.3015 28.9101 23.8476 28.9101C22.3938 28.9101 21.2109 30.093 21.2109 31.5469ZM23.8476 30.668C24.3322 30.668 24.7265 31.0623 24.7265 31.5469C24.7265 32.0314 24.3322 32.4258 23.8476 32.4258C23.3631 32.4258 22.9687 32.0314 22.9687 31.5469C22.9687 31.0623 23.3631 30.668 23.8476 30.668Z" fill="#181818"/>
<rect x="18" width="23" height="16" rx="8" fill="#ED0000"/>
<path d="M25.7017 3.84L23.7217 4.596V5.856L25.3537 5.244V10.764H23.7217V12H28.1617V10.764H26.7097V3.84H25.7017ZM29.0057 7.92C29.0057 10.308 30.1337 12.156 32.6657 12.156C35.1977 12.156 36.3257 10.308 36.3257 7.92C36.3257 5.532 35.1977 3.684 32.6657 3.684C30.1337 3.684 29.0057 5.532 29.0057 7.92ZM34.9457 7.92C34.9457 9.816 34.2257 10.908 32.6657 10.908C31.0937 10.908 30.3857 9.816 30.3857 7.92C30.3857 6.024 31.0937 4.932 32.6657 4.932C34.2257 4.932 34.9457 6.024 34.9457 7.92Z" fill="white"/>
</svg>
