<svg width="14" height="14" viewBox="0 0 14 14" fill="none" xmlns="http://www.w3.org/2000/svg">
<g clip-path="url(#clip0_34_2564)">
<path d="M1.7976 0.000610352H12.2032C13.1918 0.000610352 14 0.809064 14 1.79765V12.2033C14 13.1916 13.1918 13.9995 12.2032 13.9995H1.7976C0.809013 13.9995 0 13.1916 0 12.2033V1.79765C0 0.809064 0.809013 0.000610352 1.7976 0.000610352ZM10.1988 1.5554C9.85171 1.5554 9.56858 1.83965 9.56858 2.18657V3.69456C9.56858 4.04162 9.85171 4.32521 10.1988 4.32521H11.781C12.1275 4.32521 12.4112 4.04162 12.4112 3.69456V2.18657C12.4112 1.83965 12.1275 1.5554 11.781 1.5554H10.1988ZM12.4173 5.92056H11.1854C11.3022 6.30206 11.3656 6.70437 11.3656 7.12264C11.3656 9.45047 9.41649 11.3385 7.01316 11.3385C4.61043 11.3385 2.66131 9.45047 2.66131 7.12264C2.66131 6.70437 2.72524 6.30206 2.84149 5.92056H1.55633V11.8347C1.55633 12.141 1.80642 12.3901 2.11241 12.3901H11.8614C12.1677 12.3901 12.4173 12.141 12.4173 11.8347V5.92056ZM7.01321 4.24569C5.46107 4.24569 4.20201 5.465 4.20201 6.97046C4.20201 8.47439 5.46107 9.69463 7.01321 9.69463C8.56618 9.69463 9.82529 8.47439 9.82529 6.97046C9.82529 5.46495 8.56618 4.24569 7.01321 4.24569Z" fill="white"/>
</g>
<defs>
<clipPath id="clip0_34_2564">
<rect width="14" height="14" fill="white"/>
</clipPath>
</defs>
</svg>
