<svg width="42" height="36" viewBox="0 0 42 36" fill="none" xmlns="http://www.w3.org/2000/svg">
<g clip-path="url(#clip0_5605_85567)">
<path d="M27.5768 10.2611C26.0059 8.69017 23.9262 7.83158 21.7066 7.83158C19.487 7.83158 17.4009 8.69653 15.83 10.2674L15.0095 11.0879L14.1764 10.2547C12.6055 8.68381 10.5131 7.8125 8.29342 7.8125C6.08016 7.8125 3.99409 8.67745 2.42954 10.242C0.858629 11.8129 -0.00632514 13.899 3.48253e-05 16.1186C3.48253e-05 18.3382 0.871349 20.4179 2.44226 21.9889L14.3863 33.9329C14.5516 34.0982 14.7742 34.1873 14.9905 34.1873C15.2067 34.1873 15.4293 34.1046 15.5947 33.9392L27.5641 22.0143C29.135 20.4434 30 18.3573 30 16.1377C30.0063 13.9181 29.1477 11.832 27.5768 10.2611ZM26.3557 20.7995L14.9905 32.1203L3.65065 20.7805C2.4041 19.5339 1.71722 17.8803 1.71722 16.1186C1.71722 14.3569 2.39774 12.7033 3.64429 11.4631C4.88448 10.2229 6.53807 9.53605 8.29342 9.53605C10.0551 9.53605 11.7151 10.2229 12.9616 11.4695L14.399 12.9068C14.7361 13.2439 15.2767 13.2439 15.6137 12.9068L17.0384 11.4822C18.2849 10.2356 19.9449 9.54877 21.7002 9.54877C23.4556 9.54877 25.1092 10.2356 26.3557 11.4758C27.6023 12.7224 28.2828 14.376 28.2828 16.1377C28.2891 17.8994 27.6023 19.553 26.3557 20.7995Z" fill="#181818"/>
</g>
<rect x="19" width="23" height="16" rx="8" fill="#ED0000"/>
<path d="M30.632 3.84L26.288 9.168V10.332H30.716V12H32.036V10.332H33.44V9.144H32.036V3.84H30.632ZM30.716 9.144H27.812L30.716 5.58V9.144Z" fill="white"/>
<defs>
<clipPath id="clip0_5605_85567">
<rect width="30" height="30" fill="white" transform="translate(0 6)"/>
</clipPath>
</defs>
</svg>
