<svg width="20" height="20" viewBox="0 0 20 20" fill="none" xmlns="http://www.w3.org/2000/svg">
<path d="M10.0064 4.45274L10.5367 3.92241L11.0836 3.37546C11.9905 2.46862 13.1905 1.97122 14.4711 1.97122C15.7525 1.97122 16.948 2.465 17.8542 3.37122C18.7601 4.27705 19.2536 5.47601 19.25 6.75647V6.75862C19.25 8.03906 18.7527 9.239 17.846 10.1458C17.8459 10.1459 17.8458 10.146 17.8457 10.146L9.996 17.9666L2.1585 10.1291C1.25019 9.22075 0.750023 8.02436 0.750026 6.7459L0.75002 6.74375C0.746355 5.46477 1.24314 4.26538 2.15002 3.3585C3.05253 2.45599 4.25252 1.9585 5.52895 1.9585C6.80863 1.9585 8.01315 2.45953 8.92059 3.36698L9.47603 3.92241L10.0064 4.45274ZM9.86611 18.096C9.86644 18.0956 9.86677 18.0953 9.8671 18.095L9.86611 18.096Z" stroke="#181818" stroke-width="1.5"/>
</svg>
